<svg data-v-423bf9ae="" xmlns="http://www.w3.org/2000/svg" viewBox="0 0 325.75219878893495 182" class="iconAboveSlogan"><!----><!----><!----><g data-v-423bf9ae="" id="3a48e605-a27a-4fb4-b723-5ca5981f00fc" fill="white" transform="matrix(5.309734344482422,0,0,5.309734344482422,-7.433634281158447,96.30973815917969)"><path d="M4.34 1.40Q5.92 1.40 7.17 2.10Q8.41 2.80 9.11 4.04Q9.81 5.28 9.81 6.86L9.81 6.86Q9.81 8.44 9.11 9.69Q8.41 10.93 7.17 11.63Q5.92 12.33 4.34 12.33L4.34 12.33L1.82 12.33Q1.64 12.33 1.52 12.21Q1.40 12.10 1.40 11.91L1.40 11.91L1.40 1.82Q1.40 1.62 1.52 1.51Q1.64 1.40 1.82 1.40L1.82 1.40L4.34 1.40ZM4.34 11.58Q5.68 11.58 6.73 10.97Q7.78 10.36 8.38 9.28Q8.97 8.20 8.97 6.86L8.97 6.86Q8.97 5.52 8.38 4.44Q7.78 3.37 6.73 2.76Q5.68 2.16 4.34 2.16L4.34 2.16L2.24 2.16L2.24 11.58L4.34 11.58ZM15.16 4.59Q16.23 4.59 16.23 5.05L16.23 5.05Q16.23 5.12 16.21 5.17L16.21 5.17Q16.17 5.32 16.08 5.38Q15.99 5.45 15.83 5.45L15.83 5.45Q15.71 5.45 15.50 5.42Q15.30 5.39 15.16 5.39L15.16 5.39Q14.46 5.39 13.92 5.68Q13.37 5.98 13.06 6.50Q12.75 7.01 12.75 7.66L12.75 7.66L12.75 11.91Q12.75 12.10 12.64 12.21Q12.53 12.33 12.33 12.33L12.33 12.33Q12.15 12.33 12.03 12.21Q11.91 12.10 11.91 11.91L11.91 11.91L11.91 5.10Q11.91 4.90 12.03 4.79Q12.15 4.68 12.33 4.68L12.33 4.68Q12.53 4.68 12.64 4.79Q12.75 4.90 12.75 5.10L12.75 5.10L12.75 5.96Q13.16 5.32 13.79 4.96Q14.42 4.59 15.16 4.59L15.16 4.59ZM20.66 4.61Q21.69 4.61 22.49 5.09Q23.30 5.57 23.74 6.43Q24.19 7.28 24.19 8.37L24.19 8.37Q24.19 8.55 24.08 8.66Q23.97 8.76 23.79 8.76L23.79 8.76L17.92 8.76Q17.96 9.59 18.35 10.24Q18.75 10.89 19.40 11.26Q20.06 11.62 20.87 11.62L20.87 11.62Q21.42 11.62 21.97 11.43Q22.53 11.24 22.85 10.93L22.85 10.93Q22.99 10.82 23.14 10.82L23.14 10.82Q23.30 10.82 23.39 10.91L23.39 10.91Q23.55 11.03 23.55 11.20L23.55 11.20Q23.55 11.34 23.42 11.47L23.42 11.47Q22.97 11.87 22.25 12.14Q21.53 12.40 20.87 12.40L20.87 12.40Q19.77 12.40 18.91 11.91Q18.05 11.41 17.56 10.52Q17.07 9.63 17.07 8.51L17.07 8.51Q17.07 7.38 17.52 6.49Q17.98 5.60 18.80 5.10Q19.61 4.61 20.66 4.61L20.66 4.61ZM20.66 5.39Q19.57 5.39 18.82 6.12Q18.07 6.85 17.93 8.04L17.93 8.04L23.38 8.04Q23.28 6.85 22.54 6.12Q21.80 5.39 20.66 5.39L20.66 5.39ZM26.17 11.14Q26.46 11.14 26.66 11.35Q26.87 11.55 26.87 11.84L26.87 11.84Q26.87 12.14 26.66 12.35Q26.46 12.56 26.17 12.56L26.17 12.56Q25.86 12.56 25.66 12.36Q25.45 12.15 25.45 11.84L25.45 11.84Q25.45 11.55 25.66 11.35Q25.87 11.14 26.17 11.14L26.17 11.14ZM33.88 1.26Q35.84 1.26 37.34 2.51L37.34 2.51Q37.46 2.60 37.46 2.79L37.46 2.79Q37.46 2.95 37.35 3.09Q37.24 3.22 37.04 3.22L37.04 3.22Q36.89 3.22 36.69 3.05L36.69 3.05Q35.63 2.10 33.88 2.10L33.88 2.10Q32.65 2.10 31.58 2.76Q30.51 3.42 29.88 4.51Q29.25 5.61 29.25 6.86L29.25 6.86Q29.25 8.15 29.87 9.25Q30.49 10.35 31.56 10.99Q32.63 11.63 33.88 11.63L33.88 11.63Q35.53 11.63 36.78 10.61L36.78 10.61Q36.88 10.54 36.99 10.54L36.99 10.54Q37.16 10.54 37.29 10.67Q37.42 10.79 37.42 10.98L37.42 10.98Q37.42 11.16 37.32 11.27L37.32 11.27Q36.12 12.47 33.88 12.47L33.88 12.47Q32.41 12.47 31.15 11.71Q29.89 10.95 29.15 9.65Q28.41 8.36 28.41 6.86L28.41 6.86Q28.41 5.36 29.14 4.07Q29.88 2.79 31.13 2.02Q32.38 1.26 33.88 1.26L33.88 1.26ZM42.50 4.59Q43.60 4.59 44.49 5.10Q45.39 5.61 45.90 6.51Q46.41 7.41 46.41 8.51L46.41 8.51Q46.41 9.60 45.90 10.50Q45.39 11.40 44.49 11.91Q43.60 12.42 42.50 12.42L42.50 12.42Q41.40 12.42 40.50 11.91Q39.61 11.40 39.09 10.50Q38.58 9.60 38.58 8.51L38.58 8.51Q38.58 7.41 39.09 6.51Q39.61 5.61 40.50 5.10Q41.40 4.59 42.50 4.59L42.50 4.59ZM42.50 5.38Q41.64 5.38 40.94 5.79Q40.24 6.20 39.83 6.92Q39.42 7.63 39.42 8.51L39.42 8.51Q39.42 9.39 39.83 10.11Q40.24 10.82 40.94 11.23Q41.64 11.63 42.50 11.63L42.50 11.63Q43.37 11.63 44.07 11.23Q44.77 10.82 45.17 10.11Q45.57 9.39 45.57 8.51L45.57 8.51Q45.57 7.63 45.17 6.92Q44.77 6.20 44.07 5.79Q43.37 5.38 42.50 5.38L42.50 5.38ZM55.50 1.40Q55.69 1.40 55.80 1.51Q55.92 1.62 55.92 1.82L55.92 1.82L55.92 8.55L55.92 8.58Q55.90 9.66 55.38 10.54Q54.87 11.42 53.98 11.92Q53.09 12.42 52.01 12.42L52.01 12.42Q50.90 12.42 50.01 11.91Q49.11 11.40 48.60 10.50Q48.09 9.60 48.09 8.50L48.09 8.50Q48.09 7.41 48.60 6.51Q49.11 5.61 50.01 5.10Q50.90 4.59 52.01 4.59L52.01 4.59Q53.00 4.59 53.81 5.02Q54.61 5.45 55.08 6.19L55.08 6.19L55.08 1.82Q55.08 1.62 55.20 1.51Q55.31 1.40 55.50 1.40L55.50 1.40ZM52.01 11.63Q52.88 11.63 53.58 11.22Q54.28 10.81 54.68 10.09Q55.08 9.38 55.08 8.50L55.08 8.50Q55.08 7.62 54.68 6.90Q54.28 6.19 53.58 5.78Q52.88 5.38 52.01 5.38L52.01 5.38Q51.14 5.38 50.44 5.78Q49.74 6.19 49.34 6.90Q48.93 7.62 48.93 8.50L48.93 8.50Q48.93 9.38 49.34 10.09Q49.74 10.81 50.44 11.22Q51.14 11.63 52.01 11.63L52.01 11.63ZM61.68 4.59Q62.75 4.59 62.75 5.05L62.75 5.05Q62.75 5.12 62.73 5.17L62.73 5.17Q62.69 5.32 62.60 5.38Q62.51 5.45 62.36 5.45L62.36 5.45Q62.23 5.45 62.03 5.42Q61.82 5.39 61.68 5.39L61.68 5.39Q60.98 5.39 60.44 5.68Q59.89 5.98 59.58 6.50Q59.28 7.01 59.28 7.66L59.28 7.66L59.28 11.91Q59.28 12.10 59.16 12.21Q59.05 12.33 58.86 12.33L58.86 12.33Q58.67 12.33 58.55 12.21Q58.44 12.10 58.44 11.91L58.44 11.91L58.44 5.10Q58.44 4.90 58.55 4.79Q58.67 4.68 58.86 4.68L58.86 4.68Q59.05 4.68 59.16 4.79Q59.28 4.90 59.28 5.10L59.28 5.10L59.28 5.96Q59.68 5.32 60.31 4.96Q60.94 4.59 61.68 4.59L61.68 4.59Z"></path></g><!----><g data-v-423bf9ae="" id="db6cff36-f8d3-4eca-a542-e1bcaf86c001" transform="matrix(1.1549863815307617,0,0,1.1549863815307617,105.81568908691406,-11.691056251525879)" stroke="none" fill="white"><g data-name="Layer 1"><path d="M61.036 88.833h27.399V63.506zm26.072-1.327h-3.98a80.824 80.824 0 00-6.901-10.908L87.108 66.54zM43.731 44.079H21.934a4.071 4.071 0 01-3.79-4.122 5.074 5.074 0 011.773-4.297 4.028 4.028 0 012.2-.998 6.217 6.217 0 013.22-2.6 6.992 6.992 0 015.297-4.787 9.18 9.18 0 017.056-3.35 9.021 9.021 0 018.847 6.923 7.013 7.013 0 013.825 6.232v.369a6.638 6.638 0 01-6.63 6.63zM37.69 25.253a7.842 7.842 0 00-6.167 3.036l-.16.207-.259.042a5.741 5.741 0 00-4.582 4.21l-.094.371-.369.105a4.875 4.875 0 00-2.96 2.39l-.186.35-.396.003a2.59 2.59 0 00-1.744.707 3.784 3.784 0 00-1.302 3.283 2.788 2.788 0 002.463 2.795h21.797a5.31 5.31 0 005.304-5.303v-.37a5.684 5.684 0 00-3.348-5.168l-.308-.139-.068-.33a7.71 7.71 0 00-7.621-6.19z"></path><path d="M65.512 10.911H11.565v77.923h33.388l43.262-38.89.22-.197V31.692zm.407 2.16l20.365 18.462H65.919zm21.189 36.085l-20.09 18.06c-7.864-6.249-14.542-7.706-18.79-7.815q-.326-.01-.652-.009c-8.588 0-17.465 4.339-25.716 12.58a73.63 73.63 0 00-8.968 10.972V12.238h51.7V32.86h22.516z"></path></g></g><!----><g data-v-423bf9ae="" id="92be4623-8126-4290-9fd2-d7e630810299" fill="white" transform="matrix(0.5712290406227112,0,0,0.5712290406227112,40.764678955078125,202.32725524902344)"><path d="M4.86 1.54Q4.43 0.91 3.25 1.20L3.25 1.20Q2.29 1.43 1.65 2.14L1.65 2.14Q0.64 3.26 0.21 5.40L0.21 5.40Q-0.09 6.86-0.18 8.67L-0.18 8.67Q-0.20 9.98-0.06 10.47L-0.06 10.47Q0.21 11.44 1.30 11.50L1.30 11.50Q1.92 11.53 2.51 11.27L2.51 11.27Q3.10 10.99 3.47 10.51L3.47 10.51Q3.85 10.02 4.18 8.89L4.18 8.89Q4.26 8.64 3.60 8.76L3.60 8.76Q3.30 8.81 3.05 8.93L3.05 8.93Q2.78 9.06 2.75 9.15L2.75 9.15Q2.50 9.99 2.23 10.48L2.23 10.48Q2.11 10.68 1.98 10.83L1.98 10.83Q1.42 10.58 1.29 9.66L1.29 9.66Q1.26 9.42 1.28 8.20L1.28 8.20Q1.37 6.41 1.69 4.92L1.69 4.92Q2.15 2.75 3.19 1.80L3.19 1.80Q3.20 1.79 3.23 1.76L3.23 1.76Q3.59 2.01 3.68 2.75L3.68 2.75Q3.76 3.36 3.55 4.29L3.55 4.29Q3.21 5.76 3.21 5.80L3.21 5.80Q3.19 5.92 3.57 5.89L3.57 5.89Q3.83 5.87 3.99 5.82L3.99 5.82Q4.63 5.65 4.67 5.41L4.67 5.41Q4.72 5.07 4.87 4.41L4.87 4.41Q5.04 3.74 5.09 3.40L5.09 3.40Q5.28 2.17 4.86 1.54L4.86 1.54ZM14.93 5.20Q14.81 6.64 14.54 7.92L14.54 7.92Q14.13 9.88 13.36 10.64L13.36 10.64Q13.27 10.55 13.19 10.38L13.19 10.38Q13.01 9.97 13.02 9.03L13.02 9.03Q13.05 7.34 13.62 5.48L13.62 5.48Q14.12 3.85 14.82 3.01L14.82 3.01Q14.90 3.25 14.94 3.62L14.94 3.62Q15.01 4.21 14.93 5.20L14.93 5.20ZM15.86 1.96Q15.65 1.79 14.92 2.05L14.92 2.05Q14.42 2.24 14.44 2.39L14.44 2.39Q14.18 2.48 14.01 2.63L14.01 2.63Q13.02 3.40 12.36 5.22L12.36 5.22Q11.81 6.70 11.62 8.50L11.62 8.50Q11.54 9.28 11.57 9.92L11.57 9.92Q11.61 10.77 11.97 11.13L11.97 11.13Q12.15 11.31 12.58 11.33L12.58 11.33Q13.13 11.36 13.95 11.02L13.95 11.02Q14.64 10.74 15.16 9.94L15.16 9.94Q15.63 9.21 15.94 7.85L15.94 7.85Q16.15 6.94 16.28 5.84L16.28 5.84Q16.44 4.44 16.44 3.78L16.44 3.78Q16.43 2.45 15.86 1.96L15.86 1.96ZM30.33 2.21Q30.29 2.05 29.74 2.15L29.74 2.15Q29.04 2.28 28.88 2.54L28.88 2.54Q28 4.03 27.06 6.51L27.06 6.51L27.06 6.41Q27.06 5.55 26.90 2.12L26.90 2.12Q26.89 2.03 26.66 2.02L26.66 2.02Q26.52 1.92 26.10 2.00L26.10 2.00Q25.39 2.13 25.25 2.39L25.25 2.39Q23.11 6.30 22.50 11.14L22.50 11.14Q22.49 11.27 22.87 11.23L22.87 11.23Q23.12 11.21 23.30 11.16L23.30 11.16Q23.94 10.99 23.97 10.75L23.97 10.75Q24.37 7.51 25.54 4.58L25.54 4.58Q25.59 5.81 25.60 6.71L25.60 6.71Q25.61 8.26 25.53 8.86L25.53 8.86Q25.34 10.15 25.33 10.99L25.33 10.99Q25.33 11.20 26.02 11.03L26.02 11.03Q26.69 10.86 26.78 10.66L26.78 10.66Q27.26 9.61 27.98 7.67L27.98 7.67Q28.77 5.54 29.13 4.66L29.13 4.66Q29.18 5.91 28.94 7.85L28.94 7.85Q28.60 10.57 28.57 11.04L28.57 11.04Q28.56 11.12 28.78 11.12L28.78 11.12Q29.00 11.13 29.28 11.08L29.28 11.08Q30.00 10.94 30.03 10.65L30.03 10.65Q30.08 9.88 30.26 8.54L30.26 8.54Q30.45 7.03 30.52 6.43L30.52 6.43Q30.75 3.95 30.33 2.21L30.33 2.21ZM44.77 2.21Q44.73 2.05 44.17 2.15L44.17 2.15Q43.48 2.28 43.31 2.54L43.31 2.54Q42.44 4.03 41.50 6.51L41.50 6.51L41.50 6.41Q41.50 5.55 41.34 2.12L41.34 2.12Q41.33 2.03 41.10 2.02L41.10 2.02Q40.95 1.92 40.54 2.00L40.54 2.00Q39.83 2.13 39.68 2.39L39.68 2.39Q37.55 6.30 36.94 11.14L36.94 11.14Q36.93 11.27 37.31 11.23L37.31 11.23Q37.56 11.21 37.73 11.16L37.73 11.16Q38.38 10.99 38.40 10.75L38.40 10.75Q38.81 7.51 39.98 4.58L39.98 4.58Q40.03 5.81 40.04 6.71L40.04 6.71Q40.04 8.26 39.96 8.86L39.96 8.86Q39.78 10.15 39.77 10.99L39.77 10.99Q39.77 11.20 40.46 11.03L40.46 11.03Q41.13 10.86 41.22 10.66L41.22 10.66Q41.70 9.61 42.42 7.67L42.42 7.67Q43.20 5.54 43.57 4.66L43.57 4.66Q43.61 5.91 43.37 7.85L43.37 7.85Q43.04 10.57 43.00 11.04L43.00 11.04Q43.00 11.12 43.22 11.12L43.22 11.12Q43.44 11.13 43.72 11.08L43.72 11.08Q44.44 10.94 44.47 10.65L44.47 10.65Q44.52 9.88 44.70 8.54L44.70 8.54Q44.89 7.03 44.95 6.43L44.95 6.43Q45.19 3.95 44.77 2.21L44.77 2.21ZM56.63 2.21Q55.99 2.38 55.96 2.63L55.96 2.63Q55.90 3.01 55.75 4.51L55.75 4.51Q55.62 5.69 55.49 6.41L55.49 6.41Q55.08 8.57 53.98 9.83L53.98 9.83Q53.83 10.00 53.72 10.12L53.72 10.12Q53.46 9.61 53.42 8.40L53.42 8.40Q53.37 6.90 54.29 4.58L54.29 4.58Q54.97 2.88 55.14 2.40L55.14 2.40Q55.23 2.15 54.56 2.26L54.56 2.26Q53.79 2.41 53.70 2.66L53.70 2.66Q53.53 3.12 52.98 4.53L52.98 4.53Q52.51 5.71 52.30 6.43L52.30 6.43Q51.64 8.66 52.21 10.36L52.21 10.36Q52.31 10.68 52.51 10.83L52.51 10.83Q52.74 11.03 53.38 10.92L53.38 10.92Q54.39 10.73 55.30 9.71L55.30 9.71Q56.47 8.41 56.90 6.34L56.90 6.34Q57.06 5.55 57.20 4.29L57.20 4.29Q57.37 2.58 57.42 2.24L57.42 2.24Q57.44 2.11 57.05 2.14L57.05 2.14Q56.80 2.16 56.63 2.21L56.63 2.21ZM69.89 0.74Q69.58 0.79 69.33 0.91L69.33 0.91Q69.06 1.04 69.03 1.13L69.03 1.13Q68.15 3.96 67.53 7.39L67.53 7.39Q67.44 6.88 67.33 6.21L67.33 6.21Q67.03 4.44 66.99 4.05L66.99 4.05Q66.83 2.77 66.64 2.37L66.64 2.37Q66.64 2.37 66.63 2.35L66.63 2.35L66.64 2.34Q66.64 2.34 66.64 2.33L66.64 2.33Q66.68 2.08 66.05 2.20L66.05 2.20Q65.75 2.26 65.50 2.37L65.50 2.37Q65.21 2.51 65.19 2.60L65.19 2.60Q65.01 3.71 64.37 6.73L64.37 6.73Q63.82 9.34 63.62 10.89L63.62 10.89Q63.60 11.01 63.98 10.98L63.98 10.98Q64.24 10.96 64.41 10.91L64.41 10.91Q65.05 10.74 65.08 10.50L65.08 10.50Q65.28 8.97 65.83 6.38L65.83 6.38Q65.86 6.54 65.86 6.61L65.86 6.61Q66.08 7.90 66.26 8.95L66.26 8.95Q66.52 10.45 66.75 11.09L66.75 11.09Q66.80 11.24 67.14 11.21L67.14 11.21Q67.46 11.18 67.79 11.05L67.79 11.05Q68.38 10.89 68.41 10.65L68.41 10.65Q69.19 5.00 70.47 0.87L70.47 0.87Q70.55 0.62 69.89 0.74L69.89 0.74ZM77.81 2.53Q77.56 3.62 76.95 6.79L76.95 6.79Q76.71 8.03 76.51 8.93L76.51 8.93Q76.13 10.78 76.12 10.91L76.12 10.91Q76.12 10.99 76.34 11.00L76.34 11.00Q76.56 11.01 76.84 10.96L76.84 10.96Q77.57 10.81 77.58 10.52L77.58 10.52Q77.59 10.23 77.75 9.62L77.75 9.62Q77.82 9.32 77.98 8.57L77.98 8.57Q78.15 7.77 78.41 6.44L78.41 6.44Q79.00 3.36 79.25 2.27L79.25 2.27Q79.30 2.02 78.66 2.13L78.66 2.13Q78.36 2.19 78.11 2.31L78.11 2.31Q77.83 2.44 77.81 2.53L77.81 2.53ZM90.75 2.35Q89.79 2.17 88.79 2.15L88.79 2.15Q88.69 2.03 88.21 2.11L88.21 2.11Q88.12 2.13 88.00 2.16L88.00 2.16Q86.93 2.22 85.89 2.46L85.89 2.46Q85.16 2.63 85.22 2.88L85.22 2.88Q85.27 3.08 86.00 2.91L86.00 2.91Q86.00 2.91 86.02 2.90L86.02 2.90Q86.03 2.90 86.04 2.89L86.04 2.89Q86.12 2.88 86.28 2.85L86.28 2.85Q86.44 2.82 86.67 2.80L86.67 2.80Q86.95 2.76 87.28 2.75L87.28 2.75Q85.87 7.40 85.47 10.96L85.47 10.96Q85.46 11.02 85.69 11.03L85.69 11.03Q85.90 11.04 86.18 10.99L86.18 10.99Q86.91 10.86 86.93 10.56L86.93 10.56Q87.31 7.19 88.63 2.78L88.63 2.78Q89.10 2.82 89.54 2.91L89.54 2.91Q89.97 2.99 90.56 2.72L90.56 2.72Q90.72 2.65 90.82 2.54L90.82 2.54Q90.96 2.39 90.75 2.35L90.75 2.35ZM102.33 1.12Q102.29 0.90 101.55 1.07L101.55 1.07Q100.82 1.25 100.86 1.51L100.86 1.51Q101.05 2.73 100.82 4.12L100.82 4.12Q100.56 5.76 99.80 6.75L99.80 6.75Q99.65 6.95 99.40 7.16L99.40 7.16Q99.33 7.23 99.22 7.29L99.22 7.29Q99.23 7.29 99.15 7.34L99.15 7.34L99.14 7.34Q99.14 7.34 99.14 7.34L99.14 7.34Q99.07 7.36 99.00 7.38L99.00 7.38L98.99 7.37Q98.98 7.37 98.98 7.37L98.98 7.37Q98.94 7.36 98.88 7.35L98.88 7.35Q98.87 7.35 98.84 7.33L98.84 7.33Q98.83 7.33 98.81 7.33L98.81 7.33Q98.22 7.06 98.23 5.83L98.23 5.83Q98.23 4.47 99.19 1.59L99.19 1.59Q99.27 1.34 98.60 1.46L98.60 1.46Q97.83 1.60 97.75 1.85L97.75 1.85Q96.88 4.44 96.78 5.87L96.78 5.87Q96.68 7.12 97.19 7.65L97.19 7.65Q97.47 7.94 98.08 7.96L98.08 7.96Q98.22 7.97 98.38 7.96L98.38 7.96Q98.32 8.59 97.79 10.68L97.79 10.68Q97.73 10.94 98.38 10.82L98.38 10.82Q98.68 10.77 98.94 10.65L98.94 10.65Q99.22 10.52 99.24 10.42L99.24 10.42Q99.78 8.28 99.84 7.59L99.84 7.59Q99.88 7.57 99.89 7.57L99.89 7.57Q101.47 6.90 102.09 4.67L102.09 4.67Q102.59 2.84 102.33 1.12L102.33 1.12ZM120.24 9.39Q120.07 9.60 119.83 9.84L119.83 9.84Q119.74 9.93 119.62 10.04L119.62 10.04Q119.57 10.08 119.50 10.13L119.50 10.13Q119.50 10.14 119.49 10.14L119.49 10.14Q119.49 10.14 119.48 10.15L119.48 10.15Q119.48 10.15 119.45 10.17L119.45 10.17Q119.40 10.16 119.36 10.14L119.36 10.14Q118.74 9.88 118.63 9.08L118.63 9.08Q118.52 8.32 118.86 7.57L118.86 7.57Q119.17 6.87 119.79 6.38L119.79 6.38Q120.03 7.14 120.80 8.61L120.80 8.61Q120.50 9.05 120.24 9.39L120.24 9.39ZM121.04 3.81Q121.15 3.23 121.59 2.67L121.59 2.67Q121.67 2.58 121.80 2.45L121.80 2.45Q122.25 2.80 121.97 3.52L121.97 3.52Q121.75 4.09 121.13 4.70L121.13 4.70Q121.08 4.75 121.00 4.83L121.00 4.83Q120.96 4.29 121.04 3.81L121.04 3.81ZM123.30 5.90Q122.56 5.96 122.33 6.24L122.33 6.24Q122.04 6.59 121.71 7.12L121.71 7.12Q121.30 6.24 121.13 5.55L121.13 5.55Q121.23 5.50 121.31 5.44L121.31 5.44Q122.06 4.99 122.56 4.47L122.56 4.47Q123.17 3.84 123.40 3.27L123.40 3.27Q123.74 2.45 123.16 1.96L123.16 1.96Q122.58 1.46 121.28 2.04L121.28 2.04Q120.61 2.32 120.09 3.02L120.09 3.02Q119.29 4.07 119.63 5.76L119.63 5.76Q118.73 6.28 118.34 6.60L118.34 6.60Q117.73 7.10 117.41 7.86L117.41 7.86Q117.10 8.61 117.17 9.41L117.17 9.41Q117.24 10.21 117.87 10.58L117.87 10.58Q118.41 10.88 119.25 10.73L119.25 10.73Q120.37 10.51 121.28 9.58L121.28 9.58Q121.69 10.45 121.86 11.15L121.86 11.15Q121.91 11.39 122.64 11.20L122.64 11.20Q123.37 11.01 123.31 10.76L123.31 10.76Q123.09 9.84 122.28 8.28L122.28 8.28Q122.49 7.95 122.83 7.39L122.83 7.39Q123.22 6.75 123.30 6.63L123.30 6.63Q123.40 6.47 123.50 6.32L123.50 6.32Q123.54 6.27 123.59 6.20L123.59 6.20Q123.63 6.14 123.64 6.13L123.64 6.13Q123.78 5.97 123.61 5.91L123.61 5.91Q123.50 5.88 123.30 5.90L123.30 5.90ZM146.44 1.54Q146.01 0.91 144.83 1.20L144.83 1.20Q143.87 1.43 143.23 2.14L143.23 2.14Q142.21 3.26 141.78 5.40L141.78 5.40Q141.49 6.86 141.39 8.67L141.39 8.67Q141.38 9.98 141.52 10.47L141.52 10.47Q141.79 11.44 142.88 11.50L142.88 11.50Q143.50 11.53 144.09 11.27L144.09 11.27Q144.68 10.99 145.05 10.51L145.05 10.51Q145.43 10.02 145.76 8.89L145.76 8.89Q145.84 8.64 145.18 8.76L145.18 8.76Q144.88 8.81 144.63 8.93L144.63 8.93Q144.35 9.06 144.33 9.15L144.33 9.15Q144.08 9.99 143.81 10.48L143.81 10.48Q143.69 10.68 143.56 10.83L143.56 10.83Q142.99 10.58 142.87 9.66L142.87 9.66Q142.84 9.42 142.86 8.20L142.86 8.20Q142.95 6.41 143.27 4.92L143.27 4.92Q143.73 2.75 144.76 1.80L144.76 1.80Q144.78 1.79 144.81 1.76L144.81 1.76Q145.17 2.01 145.26 2.75L145.26 2.75Q145.34 3.36 145.13 4.29L145.13 4.29Q144.79 5.76 144.79 5.80L144.79 5.80Q144.76 5.92 145.15 5.89L145.15 5.89Q145.41 5.87 145.57 5.82L145.57 5.82Q146.21 5.65 146.25 5.41L146.25 5.41Q146.30 5.07 146.45 4.41L146.45 4.41Q146.62 3.74 146.67 3.40L146.67 3.40Q146.86 2.17 146.44 1.54L146.44 1.54ZM157.21 5.31Q157.06 6.24 156.17 7.18L156.17 7.18Q155.98 7.38 155.74 7.58L155.74 7.58Q155.67 7.63 155.61 7.68L155.61 7.68Q155.39 7.59 155.14 7.58L155.14 7.58Q155.70 4.74 155.85 2.66L155.85 2.66Q156.11 2.80 156.35 2.99L156.35 2.99Q156.86 3.39 157.10 4.03L157.10 4.03Q157.32 4.65 157.21 5.31L157.21 5.31ZM154.24 2.40Q154.24 2.40 154.25 2.39L154.25 2.39Q154.25 2.40 154.24 2.40L154.24 2.40ZM159.17 11.42Q158.44 10.88 156.91 8.99L156.91 8.99Q156.24 8.17 156.13 8.05L156.13 8.05Q156.58 7.84 157.01 7.50L157.01 7.50Q158.22 6.56 158.57 5.41L158.57 5.41Q158.82 4.60 158.61 3.84L158.61 3.84Q158.40 3.07 157.78 2.53L157.78 2.53Q156.54 1.46 154.46 1.88L154.46 1.88Q154.33 1.91 154.14 1.96L154.14 1.96Q153.40 2.14 153.46 2.37L153.46 2.37Q153.52 2.58 154.23 2.40L154.23 2.40Q154.30 2.39 154.35 2.38L154.35 2.38Q154.39 2.37 154.42 2.37L154.42 2.37Q154.31 5.11 153.07 10.79L153.07 10.79Q153.02 11.04 153.65 10.92L153.65 10.92Q153.96 10.87 154.21 10.75L154.21 10.75Q154.49 10.62 154.51 10.53L154.51 10.53Q154.81 9.17 154.90 8.72L154.90 8.72Q154.91 8.72 154.91 8.72L154.91 8.72Q154.92 8.72 154.92 8.72L154.92 8.72Q155.03 8.85 155.71 9.70L155.71 9.70Q157.03 11.34 157.79 11.92L157.79 11.92Q158.02 12.09 158.74 11.83L158.74 11.83Q158.92 11.76 159.07 11.67L159.07 11.67Q159.31 11.52 159.17 11.42L159.17 11.42ZM170.27 1.42Q169.56 1.19 168.38 1.57L168.38 1.57Q166.87 2.06 166.30 3.77L166.30 3.77Q165.96 4.83 166.13 6.11L166.13 6.11Q166.22 6.76 166.49 7.16L166.49 7.16Q166.07 7.38 165.78 7.70L165.78 7.70Q164.78 8.80 164.89 10.01L164.89 10.01Q164.96 10.70 165.44 11.11L165.44 11.11Q165.83 11.44 166.66 11.42L166.66 11.42Q167.49 11.39 168.20 10.95L168.20 10.95Q168.95 10.49 169.25 9.76L169.25 9.76Q169.31 9.61 169.03 9.60L169.03 9.60Q168.86 9.59 168.67 9.63L168.67 9.63Q167.92 9.76 167.82 10.02L167.82 10.02Q167.62 10.51 167.27 10.80L167.27 10.80Q167.25 10.81 167.24 10.82L167.24 10.82Q167.19 10.81 167.19 10.81L167.19 10.81Q167.12 10.79 167.04 10.75L167.04 10.75Q166.87 10.68 166.71 10.52L166.71 10.52Q166.43 10.23 166.35 9.63L166.35 9.63Q166.26 8.83 166.89 7.86L166.89 7.86Q166.97 7.74 167.07 7.62L167.07 7.62Q167.28 7.70 167.56 7.72L167.56 7.72Q167.96 7.74 168.45 7.51L168.45 7.51Q168.87 7.32 168.72 7.18L168.72 7.18Q168.43 6.90 168.01 6.84L168.01 6.84Q167.97 6.79 167.93 6.75L167.93 6.75Q167.73 6.45 167.62 5.89L167.62 5.89Q167.43 4.89 167.61 4.00L167.61 4.00Q167.88 2.70 168.64 2.04L168.64 2.04Q168.70 2.00 168.79 1.93L168.79 1.93Q168.80 1.93 168.80 1.93L168.80 1.93Q168.93 1.94 168.91 1.93L168.91 1.93Q169.49 2.02 169.37 2.62L169.37 2.62Q169.33 2.86 169.96 2.75L169.96 2.75Q170.26 2.69 170.52 2.58L170.52 2.58Q170.80 2.45 170.82 2.36L170.82 2.36Q170.95 1.63 170.27 1.42L170.27 1.42ZM179.44 7.89Q179.34 7.90 178.44 7.84L178.44 7.84Q178.85 6.63 179.31 5.57L179.31 5.57Q179.47 5.18 180.02 3.95L180.02 3.95Q180.00 4.61 179.81 7.85L179.81 7.85Q179.64 7.87 179.44 7.89L179.44 7.89ZM181.25 1.18Q181.07 1.09 180.69 1.16L180.69 1.16Q180.04 1.27 179.83 1.55L179.83 1.55Q179.63 1.80 178.86 3.58L178.86 3.58Q178.72 3.90 178.36 4.70L178.36 4.70Q178.04 5.42 177.86 5.83L177.86 5.83Q177.45 6.79 177.07 7.86L177.07 7.86Q176.15 7.97 175.50 8.37L175.50 8.37Q175.32 8.48 175.35 8.58L175.35 8.58Q175.38 8.67 175.58 8.68L175.58 8.68Q176.10 8.70 176.57 8.43L176.57 8.43Q176.72 8.41 176.76 8.41L176.76 8.41Q176.83 8.41 176.89 8.41L176.89 8.41Q176.57 9.39 176.24 10.53L176.24 10.53Q176.18 10.79 176.83 10.67L176.83 10.67Q177.13 10.62 177.39 10.49L177.39 10.49Q177.66 10.37 177.69 10.27L177.69 10.27Q177.95 9.32 178.23 8.48L178.23 8.48Q178.52 8.50 178.72 8.47L178.72 8.47Q179.42 8.39 179.78 8.46L179.78 8.46Q179.67 10.55 179.67 12.02L179.67 12.02Q179.67 12.10 179.89 12.11L179.89 12.11Q180.11 12.12 180.40 12.06L180.40 12.06Q181.13 11.91 181.13 11.62L181.13 11.62Q181.13 9.90 181.34 6.45L181.34 6.45Q181.54 3.00 181.54 1.27L181.54 1.27Q181.54 1.18 181.25 1.18L181.25 1.18ZM193.80 2.35Q192.84 2.17 191.84 2.15L191.84 2.15Q191.74 2.03 191.26 2.11L191.26 2.11Q191.17 2.13 191.05 2.16L191.05 2.16Q189.98 2.22 188.95 2.46L188.95 2.46Q188.21 2.63 188.28 2.88L188.28 2.88Q188.32 3.08 189.05 2.91L189.05 2.91Q189.05 2.91 189.07 2.90L189.07 2.90Q189.08 2.90 189.10 2.89L189.10 2.89Q189.17 2.88 189.33 2.85L189.33 2.85Q189.49 2.82 189.72 2.80L189.72 2.80Q190.00 2.76 190.33 2.75L190.33 2.75Q188.92 7.40 188.52 10.96L188.52 10.96Q188.51 11.02 188.74 11.03L188.74 11.03Q188.95 11.04 189.23 10.99L189.23 10.99Q189.96 10.86 189.98 10.56L189.98 10.56Q190.36 7.19 191.68 2.78L191.68 2.78Q192.15 2.82 192.59 2.91L192.59 2.91Q193.03 2.99 193.61 2.72L193.61 2.72Q193.77 2.65 193.87 2.54L193.87 2.54Q194.01 2.39 193.80 2.35L193.80 2.35ZM200.92 2.53Q200.67 3.62 200.05 6.79L200.05 6.79Q199.81 8.03 199.62 8.93L199.62 8.93Q199.23 10.78 199.23 10.91L199.23 10.91Q199.23 10.99 199.45 11.00L199.45 11.00Q199.67 11.01 199.95 10.96L199.95 10.96Q200.68 10.81 200.69 10.52L200.69 10.52Q200.70 10.23 200.85 9.62L200.85 9.62Q200.93 9.32 201.09 8.57L201.09 8.57Q201.26 7.77 201.52 6.44L201.52 6.44Q202.11 3.36 202.36 2.27L202.36 2.27Q202.41 2.02 201.77 2.13L201.77 2.13Q201.47 2.19 201.22 2.31L201.22 2.31Q200.94 2.44 200.92 2.53L200.92 2.53ZM214.43 2.13Q214.38 1.90 213.65 2.08L213.65 2.08Q212.91 2.27 212.97 2.52L212.97 2.52Q213.07 3.04 212.90 3.73L212.90 3.73Q212.84 3.96 212.73 4.33L212.73 4.33Q212.59 4.77 212.55 4.92L212.55 4.92Q212.18 6.24 211.94 6.97L211.94 6.97Q211.60 7.99 211.29 8.65L211.29 8.65Q211.32 2.78 211.30 2.18L211.30 2.18Q211.30 2.09 211.07 2.08L211.07 2.08Q210.85 2.07 210.56 2.13L210.56 2.13Q209.83 2.29 209.84 2.58L209.84 2.58Q209.89 4.06 209.86 6.67L209.86 6.67Q209.82 9.59 209.84 10.75L209.84 10.75Q209.84 10.93 210.43 10.82L210.43 10.82Q210.98 10.72 211.23 10.50L211.23 10.50Q212.47 9.40 213.36 6.77L213.36 6.77Q213.60 6.07 213.99 4.65L213.99 4.65Q214.54 2.69 214.43 2.13L214.43 2.13ZM222.21 2.53Q221.96 3.62 221.35 6.79L221.35 6.79Q221.11 8.03 220.92 8.93L220.92 8.93Q220.53 10.78 220.52 10.91L220.52 10.91Q220.52 10.99 220.75 11.00L220.75 11.00Q220.96 11.01 221.25 10.96L221.25 10.96Q221.98 10.81 221.98 10.52L221.98 10.52Q221.99 10.23 222.15 9.62L222.15 9.62Q222.22 9.32 222.38 8.57L222.38 8.57Q222.55 7.77 222.81 6.44L222.81 6.44Q223.41 3.36 223.65 2.27L223.65 2.27Q223.71 2.02 223.06 2.13L223.06 2.13Q222.76 2.19 222.51 2.31L222.51 2.31Q222.23 2.44 222.21 2.53L222.21 2.53ZM235.15 2.35Q234.19 2.17 233.19 2.15L233.19 2.15Q233.09 2.03 232.61 2.11L232.61 2.11Q232.52 2.13 232.40 2.16L232.40 2.16Q231.33 2.22 230.30 2.46L230.30 2.46Q229.56 2.63 229.63 2.88L229.63 2.88Q229.67 3.08 230.40 2.91L230.40 2.91Q230.41 2.91 230.42 2.90L230.42 2.90Q230.43 2.90 230.45 2.89L230.45 2.89Q230.52 2.88 230.68 2.85L230.68 2.85Q230.84 2.82 231.07 2.80L231.07 2.80Q231.36 2.76 231.68 2.75L231.68 2.75Q230.27 7.40 229.87 10.96L229.87 10.96Q229.87 11.02 230.09 11.03L230.09 11.03Q230.30 11.04 230.58 10.99L230.58 10.99Q231.31 10.86 231.33 10.56L231.33 10.56Q231.71 7.19 233.03 2.78L233.03 2.78Q233.50 2.82 233.94 2.91L233.94 2.91Q234.38 2.99 234.96 2.72L234.96 2.72Q235.12 2.65 235.22 2.54L235.22 2.54Q235.36 2.39 235.15 2.35L235.15 2.35ZM246.73 1.12Q246.70 0.90 245.96 1.07L245.96 1.07Q245.23 1.25 245.27 1.51L245.27 1.51Q245.45 2.73 245.23 4.12L245.23 4.12Q244.96 5.76 244.21 6.75L244.21 6.75Q244.06 6.95 243.80 7.16L243.80 7.16Q243.74 7.23 243.63 7.29L243.63 7.29Q243.63 7.29 243.55 7.34L243.55 7.34L243.54 7.34Q243.54 7.34 243.54 7.34L243.54 7.34Q243.47 7.36 243.40 7.38L243.40 7.38L243.39 7.37Q243.39 7.37 243.38 7.37L243.38 7.37Q243.35 7.36 243.28 7.35L243.28 7.35Q243.27 7.35 243.24 7.33L243.24 7.33Q243.24 7.33 243.22 7.33L243.22 7.33Q242.62 7.06 242.63 5.83L242.63 5.83Q242.63 4.47 243.59 1.59L243.59 1.59Q243.67 1.34 243.00 1.46L243.00 1.46Q242.23 1.60 242.15 1.85L242.15 1.85Q241.28 4.44 241.18 5.87L241.18 5.87Q241.08 7.12 241.60 7.65L241.60 7.65Q241.87 7.94 242.48 7.96L242.48 7.96Q242.62 7.97 242.78 7.96L242.78 7.96Q242.72 8.59 242.20 10.68L242.20 10.68Q242.14 10.94 242.78 10.82L242.78 10.82Q243.09 10.77 243.34 10.65L243.34 10.65Q243.62 10.52 243.64 10.42L243.64 10.42Q244.18 8.28 244.24 7.59L244.24 7.59Q244.28 7.57 244.29 7.57L244.29 7.57Q245.88 6.90 246.49 4.67L246.49 4.67Q247.00 2.84 246.73 1.12L246.73 1.12ZM268.88 1.59Q267.78 1.45 266.10 1.75L266.10 1.75Q266.10 1.74 266.11 1.70L266.11 1.70Q266.12 1.66 266.12 1.64L266.12 1.64Q266.19 1.39 265.54 1.50L265.54 1.50Q265.24 1.56 264.99 1.67L264.99 1.67Q264.71 1.80 264.69 1.90L264.69 1.90Q264.69 1.88 264.64 2.08L264.64 2.08Q264.45 2.18 264.39 2.30L264.39 2.30Q264.32 2.43 264.54 2.45L264.54 2.45Q263.27 7.25 262.76 10.98L262.76 10.98Q262.75 11.10 263.13 11.07L263.13 11.07Q263.38 11.05 263.55 11.00L263.55 11.00Q264.19 10.83 264.22 10.59L264.22 10.59Q264.44 8.95 264.80 7.16L264.80 7.16Q264.74 7.17 265.79 7.09L265.79 7.09Q266.44 7.05 266.77 6.75L266.77 6.75Q266.93 6.60 266.74 6.54L266.74 6.54Q266.61 6.50 266.43 6.51L266.43 6.51Q265.30 6.60 264.91 6.66L264.91 6.66Q265.32 4.65 265.97 2.24L265.97 2.24Q266.98 2.06 267.67 2.15L267.67 2.15Q268.15 2.21 268.69 1.96L268.69 1.96Q268.84 1.89 268.95 1.78L268.95 1.78Q269.10 1.62 268.88 1.59L268.88 1.59ZM275.55 2.53Q275.30 3.62 274.69 6.79L274.69 6.79Q274.45 8.03 274.26 8.93L274.26 8.93Q273.87 10.78 273.86 10.91L273.86 10.91Q273.86 10.99 274.09 11.00L274.09 11.00Q274.31 11.01 274.59 10.96L274.59 10.96Q275.32 10.81 275.32 10.52L275.32 10.52Q275.33 10.23 275.49 9.62L275.49 9.62Q275.56 9.32 275.72 8.57L275.72 8.57Q275.89 7.77 276.15 6.44L276.15 6.44Q276.75 3.36 276.99 2.27L276.99 2.27Q277.05 2.02 276.40 2.13L276.40 2.13Q276.10 2.19 275.85 2.31L275.85 2.31Q275.57 2.44 275.55 2.53L275.55 2.53ZM287.57 5.31Q287.42 6.24 286.53 7.18L286.53 7.18Q286.34 7.38 286.10 7.58L286.10 7.58Q286.04 7.63 285.97 7.68L285.97 7.68Q285.76 7.59 285.50 7.58L285.50 7.58Q286.06 4.74 286.21 2.66L286.21 2.66Q286.47 2.80 286.71 2.99L286.71 2.99Q287.23 3.39 287.46 4.03L287.46 4.03Q287.68 4.65 287.57 5.31L287.57 5.31ZM284.60 2.40Q284.60 2.40 284.61 2.39L284.61 2.39Q284.61 2.40 284.60 2.40L284.60 2.40ZM289.54 11.42Q288.80 10.88 287.27 8.99L287.27 8.99Q286.60 8.17 286.49 8.05L286.49 8.05Q286.95 7.84 287.38 7.50L287.38 7.50Q288.58 6.56 288.93 5.41L288.93 5.41Q289.18 4.60 288.98 3.84L288.98 3.84Q288.76 3.07 288.14 2.53L288.14 2.53Q286.90 1.46 284.83 1.88L284.83 1.88Q284.70 1.91 284.50 1.96L284.50 1.96Q283.76 2.14 283.82 2.37L283.82 2.37Q283.88 2.58 284.59 2.40L284.59 2.40Q284.66 2.39 284.71 2.38L284.71 2.38Q284.75 2.37 284.79 2.37L284.79 2.37Q284.67 5.11 283.43 10.79L283.43 10.79Q283.38 11.04 284.01 10.92L284.01 10.92Q284.32 10.87 284.57 10.75L284.57 10.75Q284.85 10.62 284.87 10.53L284.87 10.53Q285.17 9.17 285.26 8.72L285.26 8.72Q285.27 8.72 285.27 8.72L285.27 8.72Q285.28 8.72 285.28 8.72L285.28 8.72Q285.39 8.85 286.07 9.70L286.07 9.70Q287.39 11.34 288.16 11.92L288.16 11.92Q288.38 12.09 289.10 11.83L289.10 11.83Q289.28 11.76 289.43 11.67L289.43 11.67Q289.67 11.52 289.54 11.42L289.54 11.42ZM301.05 5.50Q301.50 4.74 301.70 3.53L301.70 3.53Q301.94 2.15 301.44 1.57L301.44 1.57Q301.16 1.22 300.41 1.27L300.41 1.27Q299.47 1.33 298.57 1.85L298.57 1.85Q297.32 2.59 296.71 4.34L296.71 4.34Q296.10 6.10 296.71 7.18L296.71 7.18Q297.01 7.68 298.38 8.17L298.38 8.17Q298.95 8.37 299.15 8.48L299.15 8.48Q299.59 8.74 299.68 9.11L299.68 9.11Q299.78 9.50 299.43 10.17L299.43 10.17Q299.26 10.51 298.98 10.76L298.98 10.76Q298.86 10.87 298.70 10.97L298.70 10.97Q298.63 11.02 298.61 11.03L298.61 11.03Q298.55 11.07 298.48 11.09L298.48 11.09Q298.58 11.05 298.46 11.10L298.46 11.10Q298.46 11.10 298.53 11.09L298.53 11.09Q298.48 11.09 298.44 11.09L298.44 11.09Q298.43 11.10 298.33 11.09L298.33 11.09Q298.29 11.09 298.14 11.05L298.14 11.05Q297.78 10.97 297.48 10.64L297.48 10.64Q297.26 10.39 297.17 9.93L297.17 9.93Q297.07 9.44 297.29 9.28L297.29 9.28Q297.49 9.13 297.47 9.06L297.47 9.06Q297.45 8.97 297.21 8.96L297.21 8.96Q296.59 8.95 296.18 9.24L296.18 9.24Q295.79 9.53 295.72 9.86L295.72 9.86Q295.63 10.20 295.79 10.62L295.79 10.62Q296.06 11.36 296.93 11.61L296.93 11.61Q297.82 11.87 299.09 11.37L299.09 11.37Q300.10 10.96 300.67 10.24L300.67 10.24Q301.05 9.76 301.14 9.24L301.14 9.24Q301.24 8.62 300.86 8.23L300.86 8.23Q300.59 7.96 300.03 7.75L300.03 7.75Q299.88 7.70 299.56 7.59L299.56 7.59Q299.27 7.50 299.14 7.44L299.14 7.44Q298.61 7.23 298.33 6.97L298.33 6.97Q298.03 6.69 297.92 5.96L297.92 5.96Q297.73 4.53 298.68 2.97L298.68 2.97Q299.09 2.29 299.60 1.95L299.60 1.95Q299.65 1.91 299.74 1.86L299.74 1.86Q299.74 1.86 299.79 1.84L299.79 1.84Q299.78 1.84 299.82 1.83L299.82 1.83Q299.79 1.84 299.83 1.83L299.83 1.83Q299.76 1.85 299.68 1.85L299.68 1.85Q299.70 1.85 299.69 1.85L299.69 1.85L299.71 1.85Q299.76 1.86 299.84 1.89L299.84 1.89Q299.86 1.89 299.95 1.96L299.95 1.96Q300.02 2.01 300.06 2.06L300.06 2.06Q300.18 2.20 300.25 2.45L300.25 2.45Q300.36 2.84 300.30 3.49L300.30 3.49Q300.18 4.81 299.61 5.76L299.61 5.76Q299.52 5.90 299.82 5.91L299.82 5.91Q300.02 5.92 300.19 5.89L300.19 5.89Q300.88 5.76 301.05 5.50L301.05 5.50ZM313.14 2.35Q312.18 2.17 311.18 2.15L311.18 2.15Q311.08 2.03 310.60 2.11L310.60 2.11Q310.51 2.13 310.39 2.16L310.39 2.16Q309.33 2.22 308.29 2.46L308.29 2.46Q307.55 2.63 307.62 2.88L307.62 2.88Q307.67 3.08 308.39 2.91L308.39 2.91Q308.40 2.91 308.41 2.90L308.41 2.90Q308.42 2.90 308.44 2.89L308.44 2.89Q308.51 2.88 308.67 2.85L308.67 2.85Q308.83 2.82 309.06 2.80L309.06 2.80Q309.35 2.76 309.67 2.75L309.67 2.75Q308.26 7.40 307.86 10.96L307.86 10.96Q307.86 11.02 308.08 11.03L308.08 11.03Q308.29 11.04 308.57 10.99L308.57 10.99Q309.30 10.86 309.33 10.56L309.33 10.56Q309.70 7.19 311.02 2.78L311.02 2.78Q311.49 2.82 311.93 2.91L311.93 2.91Q312.37 2.99 312.96 2.72L312.96 2.72Q313.11 2.65 313.21 2.54L313.21 2.54Q313.35 2.39 313.14 2.35L313.14 2.35ZM319.26 10.22Q319.29 10.29 319.76 11.23L319.76 11.23Q319.87 11.44 320.55 11.25L320.55 11.25Q320.76 11.20 320.95 11.11L320.95 11.11Q321.28 10.96 321.23 10.84L321.23 10.84Q320.75 9.91 320.72 9.83L320.72 9.83Q320.63 9.63 319.94 9.81L319.94 9.81Q319.17 10.01 319.26 10.22L319.26 10.22ZM349.89 1.59Q348.79 1.45 347.11 1.75L347.11 1.75Q347.12 1.74 347.12 1.70L347.12 1.70Q347.14 1.66 347.14 1.64L347.14 1.64Q347.20 1.39 346.55 1.50L346.55 1.50Q346.25 1.56 346.00 1.67L346.00 1.67Q345.73 1.80 345.70 1.90L345.70 1.90Q345.71 1.88 345.65 2.08L345.65 2.08Q345.46 2.18 345.40 2.30L345.40 2.30Q345.33 2.43 345.55 2.45L345.55 2.45Q344.28 7.25 343.77 10.98L343.77 10.98Q343.76 11.10 344.14 11.07L344.14 11.07Q344.39 11.05 344.57 11.00L344.57 11.00Q345.20 10.83 345.24 10.59L345.24 10.59Q345.45 8.95 345.82 7.16L345.82 7.16Q345.75 7.17 346.81 7.09L346.81 7.09Q347.45 7.05 347.79 6.75L347.79 6.75Q347.94 6.60 347.75 6.54L347.75 6.54Q347.62 6.50 347.44 6.51L347.44 6.51Q346.32 6.60 345.92 6.66L345.92 6.66Q346.34 4.65 346.98 2.24L346.98 2.24Q348.00 2.06 348.69 2.15L348.69 2.15Q349.17 2.21 349.71 1.96L349.71 1.96Q349.85 1.89 349.96 1.78L349.96 1.78Q350.11 1.62 349.89 1.59L349.89 1.59ZM358.39 5.20Q358.27 6.64 358.00 7.92L358.00 7.92Q357.59 9.88 356.82 10.64L356.82 10.64Q356.73 10.55 356.66 10.38L356.66 10.38Q356.47 9.97 356.49 9.03L356.49 9.03Q356.51 7.34 357.09 5.48L357.09 5.48Q357.59 3.85 358.29 3.01L358.29 3.01Q358.36 3.25 358.41 3.62L358.41 3.62Q358.48 4.21 358.39 5.20L358.39 5.20ZM359.32 1.96Q359.12 1.79 358.38 2.05L358.38 2.05Q357.88 2.24 357.90 2.39L357.90 2.39Q357.65 2.48 357.47 2.63L357.47 2.63Q356.49 3.40 355.82 5.22L355.82 5.22Q355.28 6.70 355.09 8.50L355.09 8.50Q355.00 9.28 355.03 9.92L355.03 9.92Q355.07 10.77 355.43 11.13L355.43 11.13Q355.62 11.31 356.05 11.33L356.05 11.33Q356.59 11.36 357.42 11.02L357.42 11.02Q358.10 10.74 358.62 9.94L358.62 9.94Q359.09 9.21 359.41 7.85L359.41 7.85Q359.62 6.94 359.74 5.84L359.74 5.84Q359.91 4.44 359.91 3.78L359.91 3.78Q359.89 2.45 359.32 1.96L359.32 1.96ZM370.64 5.31Q370.49 6.24 369.60 7.18L369.60 7.18Q369.41 7.38 369.17 7.58L369.17 7.58Q369.11 7.63 369.04 7.68L369.04 7.68Q368.83 7.59 368.57 7.58L368.57 7.58Q369.13 4.74 369.28 2.66L369.28 2.66Q369.54 2.80 369.78 2.99L369.78 2.99Q370.30 3.39 370.53 4.03L370.53 4.03Q370.75 4.65 370.64 5.31L370.64 5.31ZM367.67 2.40Q367.67 2.40 367.68 2.39L367.68 2.39Q367.68 2.40 367.67 2.40L367.67 2.40ZM372.61 11.42Q371.88 10.88 370.34 8.99L370.34 8.99Q369.67 8.17 369.56 8.05L369.56 8.05Q370.02 7.84 370.45 7.50L370.45 7.50Q371.65 6.56 372.00 5.41L372.00 5.41Q372.25 4.60 372.05 3.84L372.05 3.84Q371.83 3.07 371.21 2.53L371.21 2.53Q369.97 1.46 367.90 1.88L367.90 1.88Q367.77 1.91 367.57 1.96L367.57 1.96Q366.83 2.14 366.89 2.37L366.89 2.37Q366.95 2.58 367.66 2.40L367.66 2.40Q367.73 2.39 367.78 2.38L367.78 2.38Q367.82 2.37 367.86 2.37L367.86 2.37Q367.74 5.11 366.50 10.79L366.50 10.79Q366.45 11.04 367.08 10.92L367.08 10.92Q367.39 10.87 367.64 10.75L367.64 10.75Q367.92 10.62 367.94 10.53L367.94 10.53Q368.24 9.17 368.33 8.72L368.33 8.72Q368.34 8.72 368.34 8.72L368.34 8.72Q368.35 8.72 368.35 8.72L368.35 8.72Q368.46 8.85 369.14 9.70L369.14 9.70Q370.46 11.34 371.23 11.92L371.23 11.92Q371.45 12.09 372.17 11.83L372.17 11.83Q372.35 11.76 372.50 11.67L372.50 11.67Q372.74 11.52 372.61 11.42L372.61 11.42ZM383.70 1.42Q382.99 1.19 381.81 1.57L381.81 1.57Q380.30 2.06 379.74 3.77L379.74 3.77Q379.39 4.83 379.57 6.11L379.57 6.11Q379.65 6.76 379.92 7.16L379.92 7.16Q379.50 7.38 379.21 7.70L379.21 7.70Q378.21 8.80 378.32 10.01L378.32 10.01Q378.39 10.70 378.87 11.11L378.87 11.11Q379.26 11.44 380.09 11.42L380.09 11.42Q380.93 11.39 381.63 10.95L381.63 10.95Q382.38 10.49 382.68 9.76L382.68 9.76Q382.74 9.61 382.46 9.60L382.46 9.60Q382.29 9.59 382.10 9.63L382.10 9.63Q381.35 9.76 381.25 10.02L381.25 10.02Q381.05 10.51 380.70 10.80L380.70 10.80Q380.69 10.81 380.67 10.82L380.67 10.82Q380.63 10.81 380.62 10.81L380.62 10.81Q380.55 10.79 380.47 10.75L380.47 10.75Q380.30 10.68 380.15 10.52L380.15 10.52Q379.86 10.23 379.78 9.63L379.78 9.63Q379.69 8.83 380.32 7.86L380.32 7.86Q380.40 7.74 380.50 7.62L380.50 7.62Q380.71 7.70 380.99 7.72L380.99 7.72Q381.39 7.74 381.88 7.51L381.88 7.51Q382.30 7.32 382.15 7.18L382.15 7.18Q381.86 6.90 381.44 6.84L381.44 6.84Q381.40 6.79 381.36 6.75L381.36 6.75Q381.16 6.45 381.05 5.89L381.05 5.89Q380.86 4.89 381.04 4.00L381.04 4.00Q381.31 2.70 382.07 2.04L382.07 2.04Q382.13 2.00 382.22 1.93L382.22 1.93Q382.23 1.93 382.23 1.93L382.23 1.93Q382.36 1.94 382.34 1.93L382.34 1.93Q382.92 2.02 382.81 2.62L382.81 2.62Q382.76 2.86 383.39 2.75L383.39 2.75Q383.69 2.69 383.95 2.58L383.95 2.58Q384.23 2.45 384.25 2.36L384.25 2.36Q384.38 1.63 383.70 1.42L383.70 1.42ZM395.45 2.13Q395.40 1.90 394.67 2.08L394.67 2.08Q393.93 2.27 393.98 2.52L393.98 2.52Q394.08 3.04 393.91 3.73L393.91 3.73Q393.86 3.96 393.74 4.33L393.74 4.33Q393.61 4.77 393.57 4.92L393.57 4.92Q393.20 6.24 392.96 6.97L392.96 6.97Q392.62 7.99 392.31 8.65L392.31 8.65Q392.33 2.78 392.31 2.18L392.31 2.18Q392.31 2.09 392.08 2.08L392.08 2.08Q391.86 2.07 391.58 2.13L391.58 2.13Q390.84 2.29 390.85 2.58L390.85 2.58Q390.91 4.06 390.87 6.67L390.87 6.67Q390.83 9.59 390.85 10.75L390.85 10.75Q390.85 10.93 391.45 10.82L391.45 10.82Q391.99 10.72 392.25 10.50L392.25 10.50Q393.48 9.40 394.38 6.77L394.38 6.77Q394.61 6.07 395.01 4.65L395.01 4.65Q395.55 2.69 395.45 2.13L395.45 2.13ZM406.53 1.42Q405.82 1.19 404.63 1.57L404.63 1.57Q403.12 2.06 402.56 3.77L402.56 3.77Q402.21 4.83 402.39 6.11L402.39 6.11Q402.48 6.76 402.75 7.16L402.75 7.16Q402.33 7.38 402.04 7.70L402.04 7.70Q401.04 8.80 401.15 10.01L401.15 10.01Q401.21 10.70 401.69 11.11L401.69 11.11Q402.09 11.44 402.92 11.42L402.92 11.42Q403.75 11.39 404.46 10.95L404.46 10.95Q405.21 10.49 405.51 9.76L405.51 9.76Q405.57 9.61 405.29 9.60L405.29 9.60Q405.12 9.59 404.93 9.63L404.93 9.63Q404.17 9.76 404.07 10.02L404.07 10.02Q403.87 10.51 403.53 10.80L403.53 10.80Q403.51 10.81 403.50 10.82L403.50 10.82Q403.45 10.81 403.44 10.81L403.44 10.81Q403.38 10.79 403.29 10.75L403.29 10.75Q403.13 10.68 402.97 10.52L402.97 10.52Q402.68 10.23 402.61 9.63L402.61 9.63Q402.51 8.83 403.14 7.86L403.14 7.86Q403.22 7.74 403.33 7.62L403.33 7.62Q403.54 7.70 403.81 7.72L403.81 7.72Q404.22 7.74 404.71 7.51L404.71 7.51Q405.13 7.32 404.97 7.18L404.97 7.18Q404.69 6.90 404.26 6.84L404.26 6.84Q404.22 6.79 404.19 6.75L404.19 6.75Q403.98 6.45 403.87 5.89L403.87 5.89Q403.68 4.89 403.87 4.00L403.87 4.00Q404.13 2.70 404.90 2.04L404.90 2.04Q404.95 2.00 405.05 1.93L405.05 1.93Q405.06 1.93 405.06 1.93L405.06 1.93Q405.19 1.94 405.17 1.93L405.17 1.93Q405.75 2.02 405.63 2.62L405.63 2.62Q405.58 2.86 406.21 2.75L406.21 2.75Q406.52 2.69 406.77 2.58L406.77 2.58Q407.05 2.45 407.07 2.36L407.07 2.36Q407.21 1.63 406.53 1.42L406.53 1.42ZM416.78 5.31Q416.63 6.24 415.73 7.18L415.73 7.18Q415.54 7.38 415.30 7.58L415.30 7.58Q415.24 7.63 415.18 7.68L415.18 7.68Q414.96 7.59 414.71 7.58L414.71 7.58Q415.27 4.74 415.41 2.66L415.41 2.66Q415.68 2.80 415.92 2.99L415.92 2.99Q416.43 3.39 416.66 4.03L416.66 4.03Q416.89 4.65 416.78 5.31L416.78 5.31ZM413.81 2.40Q413.81 2.40 413.82 2.39L413.82 2.39Q413.81 2.40 413.81 2.40L413.81 2.40ZM418.74 11.42Q418.01 10.88 416.48 8.99L416.48 8.99Q415.81 8.17 415.69 8.05L415.69 8.05Q416.15 7.84 416.58 7.50L416.58 7.50Q417.79 6.56 418.14 5.41L418.14 5.41Q418.39 4.60 418.18 3.84L418.18 3.84Q417.97 3.07 417.35 2.53L417.35 2.53Q416.10 1.46 414.03 1.88L414.03 1.88Q413.90 1.91 413.70 1.96L413.70 1.96Q412.97 2.14 413.03 2.37L413.03 2.37Q413.09 2.58 413.80 2.40L413.80 2.40Q413.87 2.39 413.92 2.38L413.92 2.38Q413.96 2.37 413.99 2.37L413.99 2.37Q413.88 5.11 412.64 10.79L412.64 10.79Q412.58 11.04 413.22 10.92L413.22 10.92Q413.53 10.87 413.78 10.75L413.78 10.75Q414.06 10.62 414.08 10.53L414.08 10.53Q414.37 9.17 414.47 8.72L414.47 8.72Q414.48 8.72 414.48 8.72L414.48 8.72Q414.48 8.72 414.48 8.72L414.48 8.72Q414.59 8.85 415.28 9.70L415.28 9.70Q416.60 11.34 417.36 11.92L417.36 11.92Q417.59 12.09 418.30 11.83L418.30 11.83Q418.49 11.76 418.63 11.67L418.63 11.67Q418.88 11.52 418.74 11.42L418.74 11.42ZM425.54 10.22Q425.57 10.29 426.04 11.23L426.04 11.23Q426.15 11.44 426.83 11.25L426.83 11.25Q427.04 11.20 427.23 11.11L427.23 11.11Q427.56 10.96 427.51 10.84L427.51 10.84Q427.03 9.91 427 9.83L427 9.83Q426.90 9.63 426.21 9.81L426.21 9.81Q425.45 10.01 425.54 10.22L425.54 10.22Z"></path></g></svg>