<svg data-v-fde0c5aa="" xmlns="http://www.w3.org/2000/svg" viewBox="0 0 300 300" class="font"><!----><defs data-v-fde0c5aa=""><!----></defs><rect data-v-fde0c5aa="" fill="#FEFAE0" x="0" y="0" width="300px" height="300px" class="logo-background-square"></rect><defs data-v-fde0c5aa=""><!----></defs><g data-v-fde0c5aa="" id="175361c3-75e2-4a23-b0ac-bbbeff5c6f82" fill="#BC6C25" transform="matrix(3.585982084274292,0,0,3.585982084274292,34.9796250625057,125.22086297159392)"><path d="M4.34 1.40Q5.92 1.40 7.17 2.10Q8.41 2.80 9.11 4.04Q9.81 5.28 9.81 6.86L9.81 6.86Q9.81 8.44 9.11 9.69Q8.41 10.93 7.17 11.63Q5.92 12.33 4.34 12.33L4.34 12.33L1.82 12.33Q1.64 12.33 1.52 12.21Q1.40 12.10 1.40 11.91L1.40 11.91L1.40 1.82Q1.40 1.62 1.52 1.51Q1.64 1.40 1.82 1.40L1.82 1.40L4.34 1.40ZM4.34 11.58Q5.68 11.58 6.73 10.97Q7.78 10.36 8.38 9.28Q8.97 8.20 8.97 6.86L8.97 6.86Q8.97 5.52 8.38 4.44Q7.78 3.37 6.73 2.76Q5.68 2.16 4.34 2.16L4.34 2.16L2.24 2.16L2.24 11.58L4.34 11.58ZM15.16 4.59Q16.23 4.59 16.23 5.05L16.23 5.05Q16.23 5.12 16.21 5.17L16.21 5.17Q16.17 5.32 16.08 5.38Q15.99 5.45 15.83 5.45L15.83 5.45Q15.71 5.45 15.50 5.42Q15.30 5.39 15.16 5.39L15.16 5.39Q14.46 5.39 13.92 5.68Q13.37 5.98 13.06 6.50Q12.75 7.01 12.75 7.66L12.75 7.66L12.75 11.91Q12.75 12.10 12.64 12.21Q12.53 12.33 12.33 12.33L12.33 12.33Q12.15 12.33 12.03 12.21Q11.91 12.10 11.91 11.91L11.91 11.91L11.91 5.10Q11.91 4.90 12.03 4.79Q12.15 4.68 12.33 4.68L12.33 4.68Q12.53 4.68 12.64 4.79Q12.75 4.90 12.75 5.10L12.75 5.10L12.75 5.96Q13.16 5.32 13.79 4.96Q14.42 4.59 15.16 4.59L15.16 4.59ZM20.66 4.61Q21.69 4.61 22.49 5.09Q23.30 5.57 23.74 6.43Q24.19 7.28 24.19 8.37L24.19 8.37Q24.19 8.55 24.08 8.66Q23.97 8.76 23.79 8.76L23.79 8.76L17.92 8.76Q17.96 9.59 18.35 10.24Q18.75 10.89 19.40 11.26Q20.06 11.62 20.87 11.62L20.87 11.62Q21.42 11.62 21.97 11.43Q22.53 11.24 22.85 10.93L22.85 10.93Q22.99 10.82 23.14 10.82L23.14 10.82Q23.30 10.82 23.39 10.91L23.39 10.91Q23.55 11.03 23.55 11.20L23.55 11.20Q23.55 11.34 23.42 11.47L23.42 11.47Q22.97 11.87 22.25 12.14Q21.53 12.40 20.87 12.40L20.87 12.40Q19.77 12.40 18.91 11.91Q18.05 11.41 17.56 10.52Q17.07 9.63 17.07 8.51L17.07 8.51Q17.07 7.38 17.52 6.49Q17.98 5.60 18.80 5.10Q19.61 4.61 20.66 4.61L20.66 4.61ZM20.66 5.39Q19.57 5.39 18.82 6.12Q18.07 6.85 17.93 8.04L17.93 8.04L23.38 8.04Q23.28 6.85 22.54 6.12Q21.80 5.39 20.66 5.39L20.66 5.39ZM26.17 11.14Q26.46 11.14 26.66 11.35Q26.87 11.55 26.87 11.84L26.87 11.84Q26.87 12.14 26.66 12.35Q26.46 12.56 26.17 12.56L26.17 12.56Q25.86 12.56 25.66 12.36Q25.45 12.15 25.45 11.84L25.45 11.84Q25.45 11.55 25.66 11.35Q25.87 11.14 26.17 11.14L26.17 11.14ZM33.88 1.26Q35.84 1.26 37.34 2.51L37.34 2.51Q37.46 2.60 37.46 2.79L37.46 2.79Q37.46 2.95 37.35 3.09Q37.24 3.22 37.04 3.22L37.04 3.22Q36.89 3.22 36.69 3.05L36.69 3.05Q35.63 2.10 33.88 2.10L33.88 2.10Q32.65 2.10 31.58 2.76Q30.51 3.42 29.88 4.51Q29.25 5.61 29.25 6.86L29.25 6.86Q29.25 8.15 29.87 9.25Q30.49 10.35 31.56 10.99Q32.63 11.63 33.88 11.63L33.88 11.63Q35.53 11.63 36.78 10.61L36.78 10.61Q36.88 10.54 36.99 10.54L36.99 10.54Q37.16 10.54 37.29 10.67Q37.42 10.79 37.42 10.98L37.42 10.98Q37.42 11.16 37.32 11.27L37.32 11.27Q36.12 12.47 33.88 12.47L33.88 12.47Q32.41 12.47 31.15 11.71Q29.89 10.95 29.15 9.65Q28.41 8.36 28.41 6.86L28.41 6.86Q28.41 5.36 29.14 4.07Q29.88 2.79 31.13 2.02Q32.38 1.26 33.88 1.26L33.88 1.26ZM42.50 4.59Q43.60 4.59 44.49 5.10Q45.39 5.61 45.90 6.51Q46.41 7.41 46.41 8.51L46.41 8.51Q46.41 9.60 45.90 10.50Q45.39 11.40 44.49 11.91Q43.60 12.42 42.50 12.42L42.50 12.42Q41.40 12.42 40.50 11.91Q39.61 11.40 39.09 10.50Q38.58 9.60 38.58 8.51L38.58 8.51Q38.58 7.41 39.09 6.51Q39.61 5.61 40.50 5.10Q41.40 4.59 42.50 4.59L42.50 4.59ZM42.50 5.38Q41.64 5.38 40.94 5.79Q40.24 6.20 39.83 6.92Q39.42 7.63 39.42 8.51L39.42 8.51Q39.42 9.39 39.83 10.11Q40.24 10.82 40.94 11.23Q41.64 11.63 42.50 11.63L42.50 11.63Q43.37 11.63 44.07 11.23Q44.77 10.82 45.17 10.11Q45.57 9.39 45.57 8.51L45.57 8.51Q45.57 7.63 45.17 6.92Q44.77 6.20 44.07 5.79Q43.37 5.38 42.50 5.38L42.50 5.38ZM55.50 1.40Q55.69 1.40 55.80 1.51Q55.92 1.62 55.92 1.82L55.92 1.82L55.92 8.55L55.92 8.58Q55.90 9.66 55.38 10.54Q54.87 11.42 53.98 11.92Q53.09 12.42 52.01 12.42L52.01 12.42Q50.90 12.42 50.01 11.91Q49.11 11.40 48.60 10.50Q48.09 9.60 48.09 8.50L48.09 8.50Q48.09 7.41 48.60 6.51Q49.11 5.61 50.01 5.10Q50.90 4.59 52.01 4.59L52.01 4.59Q53.00 4.59 53.81 5.02Q54.61 5.45 55.08 6.19L55.08 6.19L55.08 1.82Q55.08 1.62 55.20 1.51Q55.31 1.40 55.50 1.40L55.50 1.40ZM52.01 11.63Q52.88 11.63 53.58 11.22Q54.28 10.81 54.68 10.09Q55.08 9.38 55.08 8.50L55.08 8.50Q55.08 7.62 54.68 6.90Q54.28 6.19 53.58 5.78Q52.88 5.38 52.01 5.38L52.01 5.38Q51.14 5.38 50.44 5.78Q49.74 6.19 49.34 6.90Q48.93 7.62 48.93 8.50L48.93 8.50Q48.93 9.38 49.34 10.09Q49.74 10.81 50.44 11.22Q51.14 11.63 52.01 11.63L52.01 11.63ZM61.68 4.59Q62.75 4.59 62.75 5.05L62.75 5.05Q62.75 5.12 62.73 5.17L62.73 5.17Q62.69 5.32 62.60 5.38Q62.51 5.45 62.36 5.45L62.36 5.45Q62.23 5.45 62.03 5.42Q61.82 5.39 61.68 5.39L61.68 5.39Q60.98 5.39 60.44 5.68Q59.89 5.98 59.58 6.50Q59.28 7.01 59.28 7.66L59.28 7.66L59.28 11.91Q59.28 12.10 59.16 12.21Q59.05 12.33 58.86 12.33L58.86 12.33Q58.67 12.33 58.55 12.21Q58.44 12.10 58.44 11.91L58.44 11.91L58.44 5.10Q58.44 4.90 58.55 4.79Q58.67 4.68 58.86 4.68L58.86 4.68Q59.05 4.68 59.16 4.79Q59.28 4.90 59.28 5.10L59.28 5.10L59.28 5.96Q59.68 5.32 60.31 4.96Q60.94 4.59 61.68 4.59L61.68 4.59Z"></path></g><!----><!----></svg>